<svg width="1720" height="1720" viewBox="0 0 1720 1720" fill="none" xmlns="http://www.w3.org/2000/svg">
<rect width="1720" height="1720" fill="white"/>
<rect x="147" y="147" width="1426" height="1426" rx="58" fill="#1C1C1C"/>
<path fill-rule="evenodd" clip-rule="evenodd" d="M1220.93 683.687C1209.05 679.578 1197.08 675.772 1185.01 672.272C1187.01 664.071 1188.86 655.833 1190.56 647.563C1217.75 514.445 1199.97 407.205 1139.26 371.903C1081.06 338.046 985.859 373.348 889.714 457.732C880.24 466.066 870.976 474.64 861.932 483.446C855.875 477.591 849.711 471.849 843.443 466.224C742.681 375.987 641.681 337.966 581.036 373.373C522.884 407.325 505.66 508.145 530.139 634.3C532.574 646.793 535.324 659.222 538.385 671.574C524.094 675.668 510.292 680.031 497.088 684.673C378.958 726.21 303.513 791.315 303.513 858.841C303.513 928.587 384.498 998.543 507.547 1040.96C517.524 1044.38 527.584 1047.55 537.719 1050.47C534.426 1063.78 531.503 1077.17 528.953 1090.65C505.616 1214.61 523.842 1313.04 581.841 1346.78C641.745 1381.62 742.286 1345.81 840.189 1259.5C847.927 1252.68 855.695 1245.44 863.473 1237.86C873.269 1247.39 883.327 1256.64 893.635 1265.61C988.467 1347.91 1082.12 1381.15 1140.07 1347.32C1199.92 1312.37 1219.37 1206.63 1194.12 1077.98C1192.19 1068.16 1189.94 1058.12 1187.42 1047.9C1194.49 1045.8 1201.41 1043.63 1208.17 1041.37C1336.09 998.623 1419.31 929.519 1419.31 858.841C1419.31 791.071 1341.44 725.528 1220.93 683.687ZM1193.18 995.731C1187.08 997.768 1180.82 999.735 1174.44 1001.64C1160.32 956.554 1141.26 908.607 1117.94 859.076C1140.19 810.716 1158.51 763.386 1172.24 718.587C1183.65 721.924 1194.74 725.435 1205.41 729.145C1308.67 764.99 1371.65 817.997 1371.65 858.837C1371.65 902.342 1303.63 958.821 1193.18 995.731H1193.18ZM1147.35 1087.32C1158.52 1144.2 1160.11 1195.64 1152.72 1235.85C1146.07 1271.97 1132.71 1296.06 1116.18 1305.71C1081.02 1326.24 1005.82 1299.55 924.723 1229.17C915.425 1221.1 906.057 1212.48 896.665 1203.37C928.106 1168.68 959.527 1128.36 990.193 1083.59C1044.14 1078.76 1095.1 1070.87 1141.31 1060.09C1143.59 1069.36 1145.61 1078.44 1147.35 1087.32ZM683.91 1302.16C649.555 1314.4 622.193 1314.75 605.655 1305.13C570.456 1284.66 555.83 1205.62 575.785 1099.61C578.158 1087.08 580.875 1074.62 583.933 1062.25C629.635 1072.44 680.226 1079.78 734.299 1084.2C765.167 1128.01 797.497 1168.28 830.079 1203.55C823.154 1210.31 816.066 1216.89 808.82 1223.29C765.528 1261.46 722.146 1288.54 683.915 1302.16H683.91ZM522.961 995.462C468.553 976.705 423.621 952.331 392.822 925.735C365.148 901.829 351.174 878.097 351.174 858.837C351.174 817.863 411.75 765.593 512.779 730.067C525.46 725.627 538.266 721.563 551.183 717.88C565.148 763.685 583.463 811.577 605.567 860.008C583.177 909.16 564.6 957.814 550.506 1004.16C541.255 1001.49 532.071 998.588 522.961 995.462ZM576.915 625.063C555.943 516.972 569.869 435.436 604.915 414.976C642.247 393.182 724.788 424.26 811.788 502.17C817.348 507.15 822.933 512.365 828.528 517.759C796.114 552.866 764.081 592.834 733.479 636.394C681.002 641.3 630.766 649.179 584.584 659.732C581.74 648.241 579.183 636.679 576.915 625.058V625.063ZM1058.22 744.929C1047.31 725.925 1036 707.161 1024.29 688.649C1059.89 693.181 1094 699.208 1126.03 706.584C1116.42 737.667 1104.43 770.17 1090.32 803.489C1080.01 783.755 1069.31 764.231 1058.22 744.929ZM861.945 552.114C883.929 576.135 905.948 602.96 927.607 632.061C883.673 629.967 839.665 629.957 795.729 632.031C817.408 603.199 839.614 576.414 861.945 552.114ZM664.409 745.257C653.463 764.406 642.962 783.811 632.914 803.454C619.033 770.249 607.157 737.602 597.458 706.076C629.294 698.889 663.244 693.017 698.616 688.559C686.775 707.186 675.37 726.091 664.409 745.257ZM699.633 1032.55C663.091 1028.43 628.628 1022.86 596.801 1015.87C606.653 983.788 618.791 950.438 632.968 916.521C643.059 936.179 653.606 955.595 664.602 974.753C675.822 994.296 687.502 1013.57 699.633 1032.55ZM863.263 1168.96C840.671 1144.37 818.138 1117.18 796.129 1087.92C817.492 1088.77 839.274 1089.2 861.411 1089.2C884.156 1089.2 906.64 1088.69 928.767 1087.69C907.04 1117.47 885.1 1144.71 863.263 1168.96ZM1090.77 914.793C1105.69 949.079 1118.26 982.249 1128.24 1013.79C1095.89 1021.24 1060.96 1027.23 1024.16 1031.68C1035.95 1012.83 1047.37 993.735 1058.41 974.419C1069.64 954.789 1080.43 934.908 1090.77 914.793ZM1017.12 950.404C1000.22 980.017 982.366 1009.07 963.591 1037.51C930.486 1039.9 896.275 1041.13 861.411 1041.13C826.691 1041.13 792.914 1040.04 760.387 1037.91C741.125 1009.53 722.935 980.432 705.855 950.667C688.855 921.061 672.976 890.815 658.252 859.993C672.938 829.162 688.77 798.899 705.712 769.268V769.278C722.649 739.641 740.696 710.664 759.814 682.409C792.998 679.878 827.022 678.554 861.416 678.554C895.963 678.554 930.032 679.888 963.206 682.438C982.131 710.65 1000.06 739.527 1016.97 769.014C1033.97 798.579 1050.01 828.694 1065.07 859.31C1050.17 890.239 1034.17 920.623 1017.13 950.404H1017.12ZM1115.45 413.547C1152.82 435.282 1167.35 522.923 1143.87 637.858C1142.33 645.345 1140.66 652.804 1138.86 660.23C1092.57 649.458 1042.3 641.439 989.665 636.459C959.004 592.426 927.237 552.388 895.346 517.734C903.703 509.608 912.258 501.694 921.005 493.997C1003.38 421.69 1080.37 393.142 1115.45 413.547ZM961.05 858.839C961.05 803.342 916.444 758.348 861.413 758.348C806.388 758.348 761.777 803.342 761.777 858.839C761.777 914.342 806.388 959.336 861.413 959.336C916.444 959.336 961.05 914.342 961.05 858.839Z" fill="#F0F0F0"/>
</svg>
