<svg width="1720" height="1720" viewBox="0 0 1720 1720" fill="none" xmlns="http://www.w3.org/2000/svg">
<rect width="1720" height="1720" fill="#1C1C1C"/>
<rect x="123" y="123" width="1474" height="1474" rx="58" fill="white"/>
<path fill-rule="evenodd" clip-rule="evenodd" d="M1233.08 677.753C1220.8 673.506 1208.42 669.571 1195.95 665.953C1198.02 657.476 1199.93 648.961 1201.69 640.413C1229.79 502.814 1211.41 391.964 1148.66 355.474C1088.5 320.477 990.095 356.967 890.713 444.192C880.92 452.807 871.345 461.67 861.996 470.772C855.735 464.719 849.364 458.784 842.885 452.97C738.731 359.696 634.332 320.395 571.645 356.993C511.536 392.088 493.732 496.302 519.034 626.704C521.552 639.617 524.394 652.464 527.559 665.232C512.787 669.464 498.52 673.974 484.871 678.772C362.765 721.707 284.78 789.004 284.78 858.802C284.78 930.897 368.492 1003.21 495.682 1047.05C505.995 1050.59 516.394 1053.87 526.87 1056.88C523.467 1070.64 520.445 1084.49 517.809 1098.41C493.686 1226.55 512.526 1328.29 572.477 1363.17C634.398 1399.18 738.323 1362.17 839.522 1272.95C847.52 1265.9 855.549 1258.42 863.589 1250.58C873.715 1260.43 884.111 1270 894.766 1279.27C992.79 1364.34 1089.6 1398.69 1149.5 1363.72C1211.36 1327.6 1231.46 1218.3 1205.36 1085.32C1203.37 1075.16 1201.05 1064.79 1198.44 1054.23C1205.74 1052.05 1212.91 1049.81 1219.89 1047.47C1352.12 1003.29 1438.14 931.859 1438.14 858.802C1438.14 788.752 1357.64 721.002 1233.08 677.753ZM1204.4 1000.3C1198.09 1002.41 1191.62 1004.44 1185.02 1006.41C1170.43 959.805 1150.72 910.243 1126.62 859.045C1149.63 809.057 1168.56 760.134 1182.75 713.827C1194.55 717.276 1206 720.905 1217.04 724.741C1323.77 761.792 1388.87 816.584 1388.87 858.798C1388.87 903.767 1318.56 962.147 1204.4 1000.3H1204.4ZM1157.03 1094.97C1168.57 1153.77 1170.22 1206.94 1162.57 1248.5C1155.7 1285.84 1141.89 1310.74 1124.81 1320.71C1088.46 1341.93 1010.73 1314.35 926.902 1241.59C917.291 1233.25 907.608 1224.35 897.899 1214.93C930.399 1179.07 962.878 1137.39 994.576 1091.11C1050.34 1086.12 1103.01 1077.96 1150.78 1066.83C1153.13 1076.4 1155.23 1085.79 1157.03 1094.97ZM677.983 1317.04C642.472 1329.69 614.189 1330.05 597.094 1320.11C560.711 1298.95 545.591 1217.25 566.218 1107.67C568.671 1094.72 571.479 1081.85 574.64 1069.05C621.881 1079.59 674.175 1087.17 730.068 1091.75C761.975 1137.03 795.394 1178.66 829.072 1215.12C821.914 1222.1 814.587 1228.9 807.098 1235.52C762.348 1274.98 717.506 1302.96 677.988 1317.04H677.983ZM511.617 1000.02C455.377 980.634 408.933 955.439 377.097 927.948C348.492 903.237 334.047 878.706 334.047 858.798C334.047 816.445 396.662 762.415 501.092 725.693C514.199 721.104 527.437 716.903 540.788 713.096C555.223 760.443 574.155 809.948 597.003 860.008C573.859 910.815 554.657 961.107 540.089 1009.01C530.527 1006.25 521.033 1003.25 511.617 1000.02ZM567.387 617.155C545.709 505.425 560.103 421.145 596.329 399.997C634.918 377.468 720.237 409.593 810.165 490.125C815.913 495.273 821.686 500.663 827.469 506.239C793.964 542.528 760.852 583.842 729.221 628.867C674.977 633.938 623.05 642.082 575.314 652.991C572.374 641.113 569.73 629.162 567.387 617.15V617.155ZM1064.89 741.055C1053.62 721.412 1041.92 702.016 1029.82 682.881C1066.62 687.566 1101.88 693.795 1134.99 701.42C1125.05 733.549 1112.66 767.146 1098.07 801.587C1087.41 781.189 1076.35 761.008 1064.89 741.055ZM862.01 541.75C884.735 566.58 907.495 594.308 929.883 624.388C884.47 622.224 838.98 622.214 793.566 624.357C815.974 594.555 838.929 566.868 862.01 541.75ZM657.826 741.395C646.512 761.189 635.657 781.246 625.27 801.551C610.922 767.228 598.646 733.482 588.621 700.895C621.529 693.466 656.621 687.396 693.184 682.789C680.945 702.042 669.156 721.583 657.826 741.395ZM694.235 1038.35C656.463 1034.1 620.84 1028.34 587.942 1021.12C598.125 987.955 610.672 953.483 625.327 918.424C635.757 938.744 646.659 958.813 658.025 978.616C669.623 998.816 681.696 1018.73 694.235 1038.35ZM863.373 1179.36C840.021 1153.94 816.73 1125.83 793.98 1095.6C816.061 1096.47 838.576 1096.91 861.459 1096.91C884.97 1096.91 908.21 1096.38 931.083 1095.35C908.623 1126.14 885.945 1154.29 863.373 1179.36ZM1098.54 916.638C1113.96 952.077 1126.95 986.364 1137.27 1018.97C1103.83 1026.66 1067.73 1032.86 1029.68 1037.46C1041.87 1017.97 1053.68 998.237 1065.09 978.271C1076.69 957.979 1087.85 937.43 1098.54 916.638ZM1022.41 953.447C1004.94 984.057 986.485 1014.09 967.078 1043.49C932.859 1045.95 897.496 1047.22 861.459 1047.22C825.57 1047.22 790.657 1046.1 757.034 1043.9C737.124 1014.57 718.322 984.486 700.667 953.719C683.094 923.117 666.681 891.852 651.461 859.993C666.642 828.124 683.006 796.842 700.519 766.214V766.224C718.026 735.59 736.681 705.637 756.442 676.431C790.743 673.815 825.912 672.446 861.464 672.446C897.174 672.446 932.389 673.826 966.68 676.462C986.242 705.623 1004.78 735.472 1022.25 765.952C1039.82 796.511 1056.41 827.64 1071.97 859.287C1056.57 891.257 1040.04 922.664 1022.41 953.447H1022.41ZM1124.05 398.519C1162.67 420.986 1177.69 511.577 1153.43 630.381C1151.84 638.12 1150.11 645.83 1148.24 653.506C1100.39 642.371 1048.43 634.082 994.029 628.934C962.336 583.419 929.5 542.034 896.536 506.213C905.174 497.814 914.018 489.633 923.059 481.677C1008.21 406.936 1087.79 377.427 1124.05 398.519ZM964.451 858.801C964.451 801.435 918.343 754.927 861.46 754.927C804.582 754.927 758.469 801.435 758.469 858.801C758.469 916.172 804.582 962.68 861.46 962.68C918.343 962.68 964.451 916.172 964.451 858.801Z" fill="#1C1C1C"/>
</svg>
