<svg width="1720" height="1720" viewBox="0 0 1720 1720" fill="none" xmlns="http://www.w3.org/2000/svg">
<rect width="1720" height="1720" fill="white"/>
<path d="M760.768 841.644L770.847 810.714H819.85L829.929 841.644H860.697L813.882 706H776.881L730 841.644H760.768ZM778.141 788.327L794.851 736.997H795.912L812.622 788.327H778.141Z" fill="#2C2D48"/>
<path d="M869.977 879.794H898.225V825.351H899.087C902.999 833.829 911.553 843.3 927.998 843.3C951.206 843.3 969.309 824.954 969.309 790.91C969.309 755.939 950.411 738.586 928.064 738.586C911.022 738.586 902.866 748.72 899.087 756.999H897.827V739.911H869.977V879.794ZM897.628 790.778C897.628 772.63 905.32 761.039 919.046 761.039C933.037 761.039 940.464 773.16 940.464 790.778C940.464 808.528 932.905 820.847 919.046 820.847C905.452 820.847 897.628 808.925 897.628 790.778Z" fill="#2C2D48"/>
<path d="M981.606 841.644H1009.85V784.088C1009.85 771.57 1019 762.96 1031.47 762.96C1035.38 762.96 1040.75 763.622 1043.41 764.483V739.447C1040.89 738.851 1037.37 738.454 1034.52 738.454C1023.12 738.454 1013.77 745.077 1010.05 757.661H1008.99V739.911H981.606V841.644Z" fill="#2C2D48"/>
<path d="M1093.15 843.631C1118.35 843.631 1135.32 831.378 1139.3 812.502L1113.18 810.78C1110.33 818.529 1103.03 822.569 1093.62 822.569C1079.49 822.569 1070.54 813.231 1070.54 798.063V797.997H1139.9V790.248C1139.9 755.674 1118.95 738.586 1092.02 738.586C1062.05 738.586 1042.62 759.847 1042.62 791.241C1042.62 823.497 1061.79 843.631 1093.15 843.631ZM1070.54 780.512C1071.14 768.921 1079.96 759.648 1092.49 759.648C1104.76 759.648 1113.24 768.391 1113.31 780.512H1070.54Z" fill="#2C2D48"/>
<path d="M1180.05 782.83C1180.11 769.716 1187.94 762.033 1199.34 762.033C1210.68 762.033 1217.51 769.451 1217.45 781.903V841.644H1245.69V776.869C1245.69 753.158 1231.77 738.586 1210.55 738.586C1195.43 738.586 1184.49 746.004 1179.91 757.86H1178.72V739.911H1151.8V841.644H1180.05V782.83Z" fill="#2C2D48"/>
<path d="M1298.95 843.3C1315.4 843.3 1323.95 833.829 1327.86 825.351H1329.06V841.644H1356.91V706H1328.73V756.999H1327.86C1324.08 748.72 1315.93 738.586 1298.89 738.586C1276.54 738.586 1257.64 755.939 1257.64 790.91C1257.64 824.954 1275.74 843.3 1298.95 843.3ZM1307.91 820.847C1294.05 820.847 1286.49 808.528 1286.49 790.778C1286.49 773.16 1293.91 761.039 1307.91 761.039C1321.63 761.039 1329.32 772.63 1329.32 790.778C1329.32 808.925 1321.5 820.847 1307.91 820.847Z" fill="#2C2D48"/>
<path d="M1402.64 843.565C1417.69 843.565 1427.44 837.008 1432.42 827.537H1433.21V841.644H1460V773.027C1460 748.786 1439.44 738.586 1416.77 738.586C1392.36 738.586 1376.32 750.243 1372.4 768.789L1398.53 770.908C1400.45 764.152 1406.49 759.185 1416.63 759.185C1426.25 759.185 1431.75 764.02 1431.75 772.365V772.762C1431.75 779.319 1424.79 780.181 1407.08 781.903C1386.93 783.757 1368.82 790.513 1368.82 813.231C1368.82 833.365 1383.21 843.565 1402.64 843.565ZM1410.73 824.093C1402.04 824.093 1395.81 820.053 1395.81 812.303C1395.81 804.355 1402.38 800.448 1412.32 799.057C1418.49 798.196 1428.57 796.739 1431.95 794.487V805.283C1431.95 815.946 1423.13 824.093 1410.73 824.093Z" fill="#2C2D48"/>
<path d="M737.36 999.013H766.073V950.928H787.027L812.755 999.013H844.451L815.606 946.292C831.057 939.669 839.611 926.223 839.611 907.678C839.611 880.722 821.773 863.369 790.939 863.369H737.36V999.013ZM766.073 927.879V886.815H785.435C802.013 886.815 810.036 894.167 810.036 907.678C810.036 921.123 802.013 927.879 785.568 927.879H766.073Z" fill="#2C2D48"/>
<path d="M897.611 1001C922.809 1001 939.784 988.747 943.763 969.871L917.637 968.149C914.786 975.898 907.491 979.938 898.075 979.938C883.951 979.938 875 970.599 875 955.432V955.366H944.36V947.617C944.36 913.043 923.406 895.955 896.484 895.955C866.512 895.955 847.083 917.216 847.083 948.61C847.083 980.865 866.247 1001 897.611 1001ZM875 937.88C875.596 926.29 884.416 917.017 896.948 917.017C909.215 917.017 917.703 925.76 917.77 937.88H875Z" fill="#2C2D48"/>
<path d="M985.302 1000.93C1000.35 1000.93 1010.1 994.377 1015.08 984.905H1015.87V999.013H1042.66V930.396C1042.66 906.155 1022.1 895.955 999.426 895.955C975.024 895.955 958.977 907.612 955.065 926.157L981.191 928.277C983.114 921.521 989.148 916.553 999.294 916.553C1008.91 916.553 1014.41 921.388 1014.41 929.734V930.131C1014.41 936.688 1007.45 937.549 989.745 939.271C969.587 941.126 951.484 947.881 951.484 970.599C951.484 990.734 965.873 1000.93 985.302 1000.93ZM993.392 981.461C984.706 981.461 978.472 977.421 978.472 969.672C978.472 961.724 985.037 957.816 994.984 956.425C1001.15 955.564 1011.23 954.107 1014.61 951.855V962.651C1014.61 973.315 1005.79 981.461 993.392 981.461Z" fill="#2C2D48"/>
<path d="M1104.06 1001C1131.18 1001 1148.22 985.104 1149.55 961.724H1122.89C1121.23 972.586 1114.07 978.68 1104.39 978.68C1091.2 978.68 1082.64 967.619 1082.64 948.146C1082.64 928.939 1091.26 917.944 1104.39 917.944C1114.74 917.944 1121.37 924.766 1122.89 934.9H1149.55C1148.35 911.387 1130.52 895.955 1103.93 895.955C1073.03 895.955 1053.93 917.348 1053.93 948.544C1053.93 979.474 1072.69 1001 1104.06 1001Z" fill="#2C2D48"/>
<path d="M1215.27 897.28H1196.11V872.906H1167.86V897.28H1153.94V918.474H1167.86V971.46C1167.73 991.396 1181.32 1001.26 1201.81 1000.4C1209.11 1000.14 1214.28 998.682 1217.13 997.755L1212.69 976.759C1211.3 977.024 1208.31 977.686 1205.66 977.686C1200.02 977.686 1196.11 975.567 1196.11 967.751V918.474H1215.27V897.28Z" fill="#2C2D48"/>
<rect x="259" y="655" width="410" height="410" rx="58" fill="#E3F9F7"/>
<path fill-rule="evenodd" clip-rule="evenodd" d="M567.773 809.307C564.359 808.126 560.915 807.031 557.446 806.025C558.021 803.667 558.553 801.299 559.042 798.921C566.859 760.647 561.748 729.814 544.293 719.664C527.557 709.929 500.187 720.079 472.543 744.341C469.819 746.737 467.156 749.202 464.555 751.734C462.814 750.051 461.042 748.4 459.24 746.783C430.269 720.838 401.229 709.906 383.793 720.086C367.073 729.848 362.121 758.835 369.159 795.107C369.859 798.699 370.65 802.273 371.53 805.824C367.421 807.001 363.453 808.256 359.656 809.59C325.692 821.533 304 840.252 304 859.667C304 879.72 327.285 899.834 362.663 912.028C365.532 913.013 368.425 913.925 371.338 914.763C370.392 918.59 369.551 922.442 368.818 926.315C362.108 961.957 367.349 990.257 384.024 999.959C401.248 1009.98 430.155 999.68 458.304 974.864C460.529 972.902 462.762 970.821 464.998 968.64C467.815 971.381 470.707 974.042 473.67 976.621C500.936 1000.28 527.864 1009.84 544.526 1000.11C561.734 990.065 567.325 959.663 560.064 922.674C559.51 919.848 558.864 916.963 558.14 914.025C560.17 913.42 562.162 912.796 564.106 912.146C600.884 899.857 624.812 879.988 624.812 859.667C624.812 840.182 602.422 821.337 567.773 809.307ZM559.795 899.025C558.042 899.611 556.241 900.176 554.407 900.725C550.346 887.761 544.866 873.975 538.162 859.734C544.561 845.83 549.828 832.222 553.775 819.341C557.056 820.301 560.242 821.31 563.312 822.377C593 832.683 611.108 847.923 611.108 859.666C611.108 872.174 591.551 888.413 559.797 899.025H559.795ZM546.62 925.358C549.83 941.714 550.288 956.502 548.161 968.062C546.25 978.45 542.408 985.375 537.658 988.148C527.547 994.051 505.925 986.378 482.609 966.142C479.936 963.822 477.242 961.345 474.542 958.724C483.582 948.752 492.616 937.158 501.433 924.285C516.943 922.897 531.595 920.628 544.883 917.53C545.536 920.194 546.118 922.804 546.62 925.358ZM413.371 987.129C403.494 990.647 395.627 990.747 390.872 987.982C380.751 982.097 376.546 959.371 382.283 928.892C382.966 925.29 383.747 921.707 384.626 918.149C397.766 921.08 412.312 923.19 427.859 924.461C436.734 937.058 446.029 948.637 455.397 958.777C453.406 960.719 451.368 962.612 449.285 964.453C436.838 975.428 424.365 983.212 413.373 987.129H413.371ZM367.096 898.948C351.452 893.555 338.534 886.547 329.678 878.9C321.722 872.026 317.704 865.203 317.704 859.666C317.704 847.885 335.12 832.856 364.168 822.642C367.814 821.365 371.496 820.197 375.21 819.138C379.225 832.308 384.491 846.078 390.846 860.002C384.409 874.134 379.067 888.123 375.015 901.448C372.356 900.68 369.715 899.846 367.096 898.948ZM382.608 792.451C376.579 761.373 380.582 737.93 390.659 732.048C401.392 725.781 425.124 734.717 450.138 757.117C451.737 758.549 453.343 760.049 454.952 761.6C445.632 771.694 436.422 783.185 427.623 795.709C412.535 797.12 398.091 799.385 384.813 802.419C383.995 799.116 383.26 795.791 382.608 792.45V792.451ZM520.992 826.915C517.856 821.451 514.603 816.056 511.237 810.734C521.473 812.037 531.28 813.769 540.489 815.89C537.724 824.827 534.279 834.172 530.221 843.752C527.256 838.078 524.179 832.465 520.992 826.915ZM464.559 771.477C470.88 778.384 477.211 786.096 483.438 794.463C470.806 793.861 458.153 793.858 445.521 794.455C451.754 786.165 458.139 778.464 464.559 771.477ZM407.764 827.009C404.617 832.515 401.598 838.094 398.709 843.742C394.718 834.195 391.303 824.808 388.515 815.744C397.668 813.678 407.429 811.989 417.599 810.708C414.195 816.063 410.916 821.499 407.764 827.009ZM417.892 909.61C407.385 908.427 397.477 906.825 388.326 904.816C391.158 895.591 394.648 886.003 398.725 876.251C401.626 881.903 404.658 887.485 407.82 892.993C411.046 898.612 414.404 904.153 417.892 909.61ZM464.938 948.831C458.443 941.761 451.964 933.942 445.636 925.532C451.778 925.776 458.041 925.899 464.406 925.899C470.946 925.899 477.41 925.751 483.772 925.465C477.525 934.028 471.217 941.858 464.938 948.831ZM530.351 875.754C534.639 885.612 538.254 895.149 541.125 904.217C531.822 906.358 521.78 908.082 511.198 909.362C514.589 903.941 517.873 898.451 521.047 892.898C524.275 887.253 527.377 881.537 530.351 875.754ZM509.175 885.993C504.315 894.507 499.182 902.86 493.784 911.038C484.266 911.724 474.43 912.077 464.406 912.077C454.423 912.077 444.712 911.764 435.36 911.152C429.822 902.993 424.592 894.626 419.681 886.068C414.793 877.556 410.227 868.86 405.994 859.998C410.217 851.133 414.768 842.432 419.64 833.913V833.916C424.509 825.395 429.698 817.063 435.195 808.939C444.736 808.212 454.518 807.831 464.407 807.831C474.34 807.831 484.136 808.215 493.674 808.948C499.115 817.059 504.271 825.362 509.131 833.84C514.019 842.34 518.632 850.999 522.961 859.802C518.676 868.694 514.078 877.43 509.177 885.993H509.175ZM537.448 731.637C548.19 737.886 552.368 763.084 545.619 796.13C545.176 798.283 544.695 800.427 544.176 802.563C530.867 799.465 516.413 797.16 501.281 795.728C492.465 783.068 483.332 771.556 474.163 761.592C476.566 759.256 479.025 756.981 481.54 754.768C505.225 733.978 527.361 725.77 537.448 731.637ZM493.054 859.666C493.054 843.71 480.228 830.773 464.406 830.773C448.585 830.773 435.759 843.71 435.759 859.666C435.759 875.624 448.585 888.561 464.406 888.561C480.228 888.561 493.054 875.624 493.054 859.666Z" fill="#2C2D48"/>
</svg>
